DataType=double
version=3
OpenSimVersion=4.2
endheader
time	ground_force_r_vx	ground_force_r_vy	ground_force_r_vz	ground_force_r_px	ground_force_r_py	ground_force_r_pz	ground_force_l_vx	ground_force_l_vy	ground_force_l_vz	ground_force_l_px	ground_force_l_py	ground_force_l_pz	ground_torque_r_x	ground_torque_r_y	ground_torque_r_z	ground_torque_l_x	ground_torque_l_y	ground_torque_l_z
1.133605318881775	0	0	0	0	0	0	-1195.208412930443	326.4828722105649	0	0	0	0	0	0	0	0	0	-26.94547106880056
1.134933345476184	0	0	0	0	0	0	-1817.531875715874	483.3007763387409	0	0	0	0	0	0	0	0	0	-40.58281048428383
1.136261372070593	0	0	0	0	0	0	-2521.096920036936	672.005165287824	0	0	0	0	0	0	0	0	0	-55.02816276320929
1.137589398665002	0	0	0	0	0	0	-3183.065545214927	875.565585286727	0	0	0	0	0	0	0	0	0	-67.18321742918802
1.138917425259411	0	0	0	0	0	0	-3698.979788870118	1082.249658159187	0	0	0	0	0	0	0	0	0	-74.76746317305414
1.140245451853819	0	0	0	0	0	0	-3972.997011623252	1283.88457282987	0	0	0	0	0	0	0	0	0	-76.19441719096176
1.141573478448228	0	0	0	0	0	0	-4061.397119962424	1508.504665868428	0	0	0	0	0	0	0	0	0	-73.9821397516625
1.142901505042637	0	0	0	0	0	0	-4184.838827131175	1852.440407710973	0	0	0	0	0	0	0	0	0	-73.57813209754144
1.144229531637046	0	0	0	0	0	0	-5260.18386615035	2886.569258395145	0	0	0	0	0	0	0	0	0	-94.56308401707967
1.145557558231455	0	0	0	0	0	0	-7687.463263636693	5553.828127284513	0	0	0	0	0	0	0	0	0	-125.5001950936276
1.146885584825864	0	0	0	0	0	0	-7194.568737349595	7279.652974727878	0	0	0	0	0	0	0	0	0	-70.1319091180485
1.148213611420273	0	0	0	0	0	0	-4386.556429717735	5617.471416688264	0	0	0	0	0	0	0	0	0	-8.815417331252178
1.149541638014682	0	0	0	0	0	0	-2866.893021555545	4046.753832475657	0	0	0	0	0	0	0	0	0	7.350285880901453
1.150869664609091	0	0	0	0	0	0	-1686.668323936864	3527.859864987056	0	0	0	0	0	0	0	0	0	28.94819811239377
1.152197691203499	0	0	0	0	0	0	-1902.142984839657	3085.303860977505	0	0	0	0	0	0	0	0	0	11.00282740389202
1.153525717797908	0	0	0	0	0	0	-1503.414261440043	2767.560406084348	0	0	0	0	0	0	0	0	0	13.10892722032345
1.154853744392317	0	0	0	0	0	0	-1533.634232775355	2350.748821774807	0	0	0	0	0	0	0	0	0	1.186681285057325
1.156181770986726	0	0	0	0	0	0	-1303.195635072404	2108.457035857239	0	0	0	0	0	0	0	0	0	0.9428200476703301
1.157509797581135	0	0	0	0	0	0	-1339.511241135283	2052.785905889049	0	0	0	0	0	0	0	0	0	-1.153812415162375
1.158837824175544	0	0	0	0	0	0	-1236.098770585992	2054.301444108678	0	0	0	0	0	0	0	0	0	1.961554750403761
1.160165850769953	0	0	0	0	0	0	-1217.202208867615	2001.5644224366	0	0	0	0	0	0	0	0	0	1.442439406286486
1.161493877364362	0	0	0	0	0	0	-1148.695841566653	1986.571813434311	0	0	0	0	0	0	0	0	0	3.10605188274964
1.162821903958771	0	0	0	0	0	0	-1123.045900054753	1940.067627068635	0	0	0	0	0	0	0	0	0	2.844086900575142
1.164149930553179	0	0	0	0	0	0	-1081.412370738818	1916.148372195702	0	0	0	0	0	0	0	0	0	3.467520558439652
1.165477957147588	0	0	0	0	0	0	-1064.047643801187	1881.526578578576	0	0	0	0	0	0	0	0	0	3.130907804252089
1.166805983741997	0	0	0	0	0	0	-1039.567727251034	1863.052351959639	0	0	0	0	0	0	0	0	0	3.296254251823658
1.168134010336406	0	0	0	0	0	0	-1033.022163635883	1843.610632843844	0	0	0	0	0	0	0	0	0	2.88082769727222
1.169462036930815	0	0	0	0	0	0	-1027.879371490264	1839.121982293968	0	0	0	0	0	0	0	0	0	2.687334441327906
1.170790063525224	0	0	0	0	0	0	-1029.834373870533	1836.112005443466	0	0	0	0	0	0	0	0	0	2.290121032973609
1.172118090119633	0	0	0	0	0	0	-1028.004097744193	1842.154941109634	0	0	0	0	0	0	0	0	0	2.166232665052444
1.173446116714041	0	0	0	0	0	0	-1025.637671642403	1853.234000463666	0	0	0	0	0	0	0	0	0	2.143884039825213
1.17477414330845	0	0	0	0	0	0	-1015.264415266325	1872.132027898308	0	0	0	0	0	0	0	0	0	2.509576047938424
1.176102169902859	0	0	0	0	0	0	-1000.233754388959	1895.35582935435	0	0	0	0	0	0	0	0	0	3.098793546469267
1.177430196497268	0	0	0	0	0	0	-977.2728764105177	1924.288837127404	0	0	0	0	0	0	0	0	0	4.042584104660818
1.178758223091677	0	0	0	0	0	0	-948.9232003137046	1956.620726833509	0	0	0	0	0	0	0	0	0	5.222203542814771
1.180086249686086	0	0	0	0	0	0	-913.7726859203143	1993.166837570314	0	0	0	0	0	0	0	0	0	6.699183306050944
1.181414276280495	0	0	0	0	0	0	-873.5514446474099	2032.617409451732	0	0	0	0	0	0	0	0	0	8.396972497523347
1.182742302874904	0	0	0	0	0	0	-827.6123926685215	2075.365817804496	0	0	0	0	0	0	0	0	0	10.34420682656386
1.184070329469312	0	0	0	0	0	0	-777.1916174187911	2120.637451475031	0	0	0	0	0	0	0	0	0	12.48829748461265
1.185398356063721	0	0	0	0	0	0	-721.4581768499704	2170.729335926237	0	0	0	0	0	0	0	0	0	14.89636975578575
1.18672638265813	0	0	0	0	0	0	-658.179031736227	2225.860669198373	0	0	0	0	0	0	0	0	0	17.64382839484143
1.188054409252539	0	0	0	0	0	0	-586.9443377452219	2283.71717073157	0	0	0	0	0	0	0	0	0	20.70317489040537
1.189382435846948	0	0	0	0	0	0	-510.5855725802652	2343.125296445071	0	0	0	0	0	0	0	0	0	23.96182831457253
1.190710462441357	0	0	0	0	0	0	-429.9323468411729	2403.496212730121	0	0	0	0	0	0	0	0	0	27.38114300615906
1.192038489035766	0	0	0	0	0	0	-346.4822110222111	2463.967096660082	0	0	0	0	0	0	0	0	0	30.89589219312174
1.193366515630175	0	0	0	0	0	0	-260.6388062214537	2524.54811048383	0	0	0	0	0	0	0	0	0	34.49105724764316
1.194694542224584	0	0	0	0	0	0	-172.7897104867778	2584.802742833165	0	0	0	0	0	0	0	0	0	38.14458656778925
1.196022568818992	0	0	0	0	0	0	-82.93620058844553	2644.803497761231	0	0	0	0	0	0	0	0	0	41.8556893753339
1.197350595413401	0	0	0	0	0	0	9.001107312558769	2704.31389100595	0	0	0	0	0	0	0	0	0	45.62111339647308
1.19867862200781	0	0	0	0	0	0	102.3082734748835	2762.416743157599	0	0	0	0	0	0	0	0	0	49.40071732679262
1.200006648602219	0	0	0	0	0	0	195.5746183537949	2818.779096286116	0	0	0	0	0	0	0	0	0	53.14188759463771
1.201334675196628	0	0	0	0	0	0	288.5930866394208	2873.605353563563	0	0	0	0	0	0	0	0	0	56.84013733162593
1.202662701791037	0	0	0	0	0	0	381.257819097075	2926.956584794913	0	0	0	0	0	0	0	0	0	60.49208522589262
1.203990728385446	0	0	0	0	0	0	474.1075934790936	2979.477552108319	0	0	0	0	0	0	0	0	0	64.12491788833246
1.205318754979855	0	0	0	0	0	0	567.8851357786998	3031.547399673554	0	0	0	0	0	0	0	0	0	67.76800823799968
1.206646781574263	0	0	0	0	0	0	662.9821439011699	3083.517173634305	0	0	0	0	0	0	0	0	0	71.43887113923032
1.207974808168672	0	0	0	0	0	0	759.6592365648079	3135.960629907263	0	0	0	0	0	0	0	0	0	75.15424064461442
1.209302834763081	0	0	0	0	0	0	858.1691256486494	3189.406845453239	0	0	0	0	0	0	0	0	0	78.92966425031557
1.21063086135749	0	0	0	0	0	0	958.5425893289334	3244.841721610167	0	0	0	0	0	0	0	0	0	82.78050979789273
1.211958887951899	0	0	0	0	0	0	1061.030381032982	3303.087933741783	0	0	0	0	0	0	0	0	0	86.72620201342311
1.213286914546308	0	0	0	0	0	0	1166.076131032148	3364.762917810502	0	0	0	0	0	0	0	0	0	90.78861541893383
1.214614941140717	0	0	0	0	0	0	1272.882525441108	3429.499241233749	0	0	0	0	0	0	0	0	0	94.93395041122444
1.215942967735125	0	0	0	0	0	0	1381.168568932409	3496.077403307569	0	0	0	0	0	0	0	0	0	99.13184906682989
1.217270994329534	0	0	0	0	0	0	1490.120378961649	3563.343113119073	0	0	0	0	0	0	0	0	0	103.3364615113681
1.218599020923943	0	0	0	0	0	0	1599.062985869936	3629.759304236752	0	0	0	0	0	0	0	0	0	107.5011895218246
1.219927047518352	0	0	0	0	0	0	1707.744732235985	3694.415142629061	0	0	0	0	0	0	0	0	0	111.6034927895611
1.221255074112761	0	0	0	0	0	0	1815.846892773373	3756.321062369384	0	0	0	0	0	0	0	0	0	115.6180950494666
1.22258310070717	0	0	0	0	0	0	1923.146384501206	3814.786982301192	0	0	0	0	0	0	0	0	0	119.5280329548464
1.223911127301579	0	0	0	0	0	0	2029.35186340074	3869.169762975211	0	0	0	0	0	0	0	0	0	123.315355553205
1.225239153895988	0	0	0	0	0	0	2133.931530472054	3918.84080734186	0	0	0	0	0	0	0	0	0	126.9552645672604
1.226567180490397	0	0	0	0	0	0	2236.331801313196	3963.295225280498	0	0	0	0	0	0	0	0	0	130.4245628170801
1.227895207084805	0	0	0	0	0	0	2335.891399369352	4002.021043596148	0	0	0	0	0	0	0	0	0	133.6970760926272
1.229223233679214	0	0	0	0	0	0	2431.948218359767	4034.504757807029	0	0	0	0	0	0	0	0	0	136.7469454224899
1.230551260273623	0	0	0	0	0	0	2524.232012540658	4059.931450273615	0	0	0	0	0	0	0	0	0	139.5569268711862
1.231879286868032	0	0	0	0	0	0	2612.299573993937	4076.641241462233	0	0	0	0	0	0	0	0	0	142.0926988749005
1.233207313462441	0	0	0	0	0	0	2695.065687141364	4083.097744435636	0	0	0	0	0	0	0	0	0	144.3025940147934
1.23453534005685	0	0	0	0	0	0	2770.945670923219	4077.209960040786	0	0	0	0	0	0	0	0	0	146.1123308308145
1.235863366651259	0	0	0	0	0	0	2836.835282920491	4058.488349745094	0	0	0	0	0	0	0	0	0	147.423159775299
1.237191393245668	0	0	0	0	0	0	2889.167695593759	4027.107230144661	0	0	0	0	0	0	0	0	0	148.1304558977194
1.238519419840076	0	0	0	0	0	0	2923.276217961878	3982.94294811232	0	0	0	0	0	0	0	0	0	148.0893037739365
1.239847446434485	0	0	0	0	0	0	2935.619815485931	3926.531520302298	0	0	0	0	0	0	0	0	0	147.1980060197754
1.241175473028894	0	0	0	0	0	0	2925.116577698057	3858.162428722656	0	0	0	0	0	0	0	0	0	145.4278522363171
1.242503499623303	0	0	0	0	0	0	2886.7637647906	3773.775827230495	0	0	0	0	0	0	0	0	0	142.56546383873
1.243831526217712	0	0	0	0	0	0	2817.151491532708	3673.874341033248	0	0	0	0	0	0	0	0	0	138.5075597964013
1.245159552812121	0	0	0	0	0	0	2721.220956343287	3557.329603065671	0	0	0	0	0	0	0	0	0	133.3982190989547
1.24648757940653	0	0	0	0	0	0	2601.117748130669	3422.547083278149	0	0	0	0	0	0	0	0	0	127.2869712008751
1.247815606000938	0	0	0	0	0	0	2461.466134795578	3272.592656333135	0	0	0	0	0	0	0	0	0	120.3635284397724
1.249143632595347	0	0	0	0	0	0	2309.032314155824	3109.151730835642	0	0	0	0	0	0	0	0	0	112.8715463451221
1.250471659189756	0	0	0	0	0	0	2149.486248429651	2933.498800886392	0	0	0	0	0	0	0	0	0	105.0175753406445
1.251799685784165	0	0	0	0	0	0	1986.544427872047	2745.09883008249	0	0	0	0	0	0	0	0	0	96.92783560295091
1.253127712378574	0	0	0	0	0	0	1821.834486263902	2543.67788880317	0	0	0	0	0	0	0	0	0	88.66751083072214
1.254455738972983	0	0	0	0	0	0	1660.193912411756	2333.795650678952	0	0	0	0	0	0	0	0	0	80.46545454484985
1.255783765567392	0	0	0	0	0	0	1504.033785723958	2120.671718937935	0	0	0	0	0	0	0	0	0	72.47336014668133
1.257111792161801	0	0	0	0	0	0	1350.99642119756	1903.593104631926	0	0	0	0	0	0	0	0	0	64.61837415498732
1.25843981875621	0	0	0	0	0	0	1200.00652557583	1681.545454285966	0	0	0	0	0	0	0	0	0	56.87067179844654
1.259767845350618	0	0	0	0	0	0	998.5301220394753	1412.931931898684	0	0	0	0	0	0	0	0	0	47.04733774471632
1.261095871945027	0	0	0	0	0	0	718.9575070351415	1050.519455044439	0	0	0	0	0	0	0	0	0	33.83533397718482
